<svg xmlns:xlink="http://www.w3.org/1999/xlink" xmlns="http://www.w3.org/2000/svg" aria-label="Hashtag" class="_8-yf5 " color="#262626" fill="#262626" height="16" role="img" viewBox="0 0 24 24" width="16"><path d="M21.7 6.7h-4.4L18.4.9c.1-.4-.2-.8-.6-.9-.4-.1-.8.2-.9.6l-1.1 6h-5.6L11.3.8c0-.3-.3-.7-.7-.8-.4-.1-.8.2-.9.6l-1.1 6H3.8c-.4.1-.7.4-.7.8s.3.8.8.8h4.5l-1.2 6.7H2.3c-.4 0-.8.3-.8.8 0 .4.3.8.8.8h4.6l-1.2 6.8c-.1.4.2.8.6.9h.1c.4 0 .7-.3.7-.6l1.3-7.1H14l-1.2 6.8c-.1.4.2.8.6.9h.1c.4 0 .7-.3.7-.6l1.3-7.1h4.6c.4 0 .8-.3.8-.8 0-.4-.3-.8-.8-.8h-4.3L17 8.2h4.7c.4 0 .8-.3.8-.8 0-.4-.4-.7-.8-.7zm-7.4 8.1H8.7l1.2-6.7h5.6l-1.2 6.7z" fill="#262626"></path></svg>